<svg xmlns="http://www.w3.org/2000/svg" width="32" height="32" viewBox="0 0 32 32">
  <defs>
    <linearGradient id="g" x1="0" y1="0" x2="1" y2="1">
      <stop offset="0" stop-color="#00e5ff"/>
      <stop offset="0.5" stop-color="#a78bfa"/>
      <stop offset="1" stop-color="#e879f9"/>
    </linearGradient>
  </defs>
  <rect x="4" y="2" width="18" height="26" rx="2" fill="url(#g)"/>
  <path d="M17 2 L22 7 L17 7 Z" fill="#c084fc"/>
  <rect x="7" y="10" width="12" height="1.5" rx="0.75" fill="#0d1117" opacity="0.5"/>
  <rect x="7" y="14" width="10" height="1.5" rx="0.75" fill="#0d1117" opacity="0.5"/>
  <rect x="7" y="18" width="8" height="1.5" rx="0.75" fill="#0d1117" opacity="0.5"/>
  <path d="M22 15 C22 15 18 13 18 13 C18 13 14 15 14 15 C14 15 14 21 18 24 C22 21 22 15 22 15Z" fill="#0d1117" fill-opacity="0.4" stroke="#0d1117" stroke-opacity="0.6" stroke-width="1"/>
  <rect x="16.5" y="18" width="3" height="2.5" rx="0.5" fill="#0d1117" opacity="0.6"/>
  <circle cx="18" cy="17" r="1.5" fill="none" stroke="#0d1117" stroke-opacity="0.6" stroke-width="1"/>
</svg>
