<?xml version="1.0" encoding="UTF-8"?>
<svg xmlns="http://www.w3.org/2000/svg" xmlns:xlink="http://www.w3.org/1999/xlink" width="2888.87" height="3304.35" viewBox="0 0 2888.87 3304.35">
<defs>
<clipPath id="clip-0">
<path clip-rule="evenodd" d="M 1804.898438 2547.28125 L 2055.820312 2547.28125 L 2055.820312 2424.148438 L 1804.898438 2424.148438 Z M 1722.140625 2269.441406 L 1722.140625 2228 C 1722.140625 1965.398438 2138.449219 1965.371094 2138.449219 2228 L 2138.449219 2269.421875 C 2178.820312 2272.101562 2210.699219 2305.660156 2210.699219 2346.691406 L 2210.699219 2624.710938 C 2210.699219 2667.46875 2176.03125 2702.140625 2133.25 2702.140625 L 1727.449219 2702.140625 C 1684.660156 2702.140625 1650.019531 2667.46875 1650.019531 2624.679688 L 1650.019531 2346.691406 C 1650.019531 2305.691406 1681.820312 2272.148438 1722.140625 2269.441406 Z M 651.667969 570.628906 L 1001.660156 570.628906 L 1001.660156 368.410156 L 651.667969 368.410156 Z M 1079.109375 725.511719 C 1121.878906 725.511719 1156.558594 690.871094 1156.578125 648.078125 L 1156.578125 290.96875 C 1156.578125 248.179688 1121.921875 213.519531 1079.140625 213.519531 L 574.253906 213.519531 C 531.464844 213.519531 496.808594 248.179688 496.808594 290.96875 L 496.808594 648.070312 C 496.808594 690.871094 531.464844 725.511719 574.253906 725.511719 Z M 1556.878906 1418.988281 C 1658.839844 1418.988281 1658.839844 1264.089844 1556.878906 1264.089844 L 437.632812 1264.089844 C 335.671875 1264.089844 335.65625 1418.988281 437.632812 1418.988281 Z M 1810.628906 1055.75 C 1912.558594 1055.75 1912.621094 900.851562 1810.628906 900.851562 L 437.632812 900.851562 C 335.65625 900.851562 335.65625 1055.75 437.632812 1055.75 Z M 1653.300781 594.941406 L 1983.820312 594.941406 L 1653.300781 264.429688 Z M 1528.71875 2431.320312 L 1528.71875 2035.03125 C 1683.210938 2066.179688 1835.03125 1999.539062 1931.238281 1938.320312 C 2024.820312 1997.910156 2177.5 2066.519531 2333.730469 2035.03125 L 2333.730469 2431.289062 C 2332.441406 2452.929688 2305.519531 2802.449219 1931.238281 2912.679688 C 1556.480469 2802.5 1530.171875 2457.21875 1528.71875 2431.320312 Z M 1931.238281 3070.539062 C 1924.570312 3070.539062 1917.96875 3069.71875 1911.511719 3067.988281 C 1500.460938 2959.199219 1373.859375 2597.839844 1373.859375 2433.179688 L 1373.859375 1923.980469 C 1373.859375 1864.511719 1438.449219 1827.160156 1490.011719 1856.890625 C 1636.28125 1941.308594 1825.128906 1829.890625 1882.699219 1783.609375 C 1911.011719 1760.820312 1951.460938 1760.820312 1979.75 1783.609375 C 2029.730469 1823.488281 2221.679688 1943.828125 2372.46875 1856.890625 C 2424 1827.191406 2488.621094 1864.429688 2488.621094 1923.980469 L 2488.621094 2433.179688 C 2488.621094 2597.601562 2361.308594 2960.21875 1950.941406 3067.988281 C 1944.480469 3069.699219 1937.859375 3070.539062 1931.238281 3070.539062 Z M 1931.238281 1543.929688 C 2373.890625 1543.929688 2733.988281 1904.039062 2733.988281 2346.691406 C 2733.988281 2789.339844 2373.890625 3149.488281 1931.238281 3149.488281 C 1488.558594 3149.488281 1128.449219 2789.339844 1128.449219 2346.691406 C 1128.449219 1904.039062 1488.558594 1543.929688 1931.238281 1543.929688 Z M 1026.171875 2659.769531 L 372.980469 2659.800781 C 252.726562 2659.800781 154.898438 2561.960938 154.898438 2441.71875 L 154.898438 372.988281 C 154.898438 252.738281 252.726562 154.898438 372.980469 154.898438 L 1498.410156 154.898438 L 1498.410156 672.371094 C 1498.410156 715.148438 1533.078125 749.808594 1575.871094 749.808594 L 2093.351562 749.808594 L 2093.351562 1402.820312 C 1611.429688 1320.101562 1318.808594 1620.171875 1299.789062 1627.339844 L 437.632812 1627.339844 C 335.65625 1627.339844 335.671875 1782.21875 437.632812 1782.21875 L 1158.101562 1782.21875 C 1111.300781 1846.179688 1072.199219 1916.070312 1042.261719 1990.609375 L 437.632812 1990.609375 C 335.671875 1990.609375 335.65625 2145.5 437.632812 2145.5 L 994.890625 2145.5 C 980.484375 2212.550781 972.972656 2282.738281 973.644531 2353.859375 L 437.632812 2353.859375 C 335.671875 2353.859375 335.65625 2508.769531 437.632812 2508.769531 L 987.328125 2508.769531 C 996.230469 2560.648438 1009.269531 2611.101562 1026.171875 2659.769531 Z M 1931.238281 3304.351562 C 1573.03125 3304.351562 1260.199219 3106.648438 1095.960938 2814.691406 L 372.980469 2814.691406 C 167.324219 2814.691406 0 2647.378906 0 2441.691406 L 0 372.980469 C 0 167.320312 167.308594 0 372.980469 0 L 1575.871094 0.0117188 C 1597.300781 0.0117188 1616.421875 8.480469 1630.949219 23.019531 L 2220.390625 612.441406 C 2242.480469 632.429688 2250.050781 651.300781 2248.238281 681.730469 L 2248.238281 1443.03125 C 2620.96875 1574.171875 2888.871094 1929.699219 2888.871094 2346.691406 C 2888.871094 2874.761719 2459.28125 3304.351562 1931.238281 3304.351562 Z M 1983.578125 2269.261719 C 1983.578125 2228.761719 1992.988281 2184.710938 1930.320312 2184.710938 C 1869.460938 2184.710938 1877.050781 2225.269531 1877.050781 2269.261719 L 1983.578125 2269.261719 "/>
</clipPath>
<linearGradient id="linear-pattern-0" gradientUnits="userSpaceOnUse" x1="0" y1="0" x2="1" y2="1" gradientTransform="matrix(2888.87, 0, 0, 3304.35, 0, 0)">
<stop offset="0" stop-color="#00e5ff" stop-opacity="1"/>
<stop offset="0.33" stop-color="#a78bfa" stop-opacity="1"/>
<stop offset="0.66" stop-color="#e879f9" stop-opacity="1"/>
<stop offset="1" stop-color="#00e5ff" stop-opacity="1"/>
</linearGradient>
</defs>
<g clip-path="url(#clip-0)">
<path fill-rule="nonzero" fill="url(#linear-pattern-0)" d="M 0 0 L 0 3304.351562 L 2888.871094 3304.351562 L 2888.871094 0 Z M 0 0 "/>
</g>
</svg>
